<svg xmlns="http://www.w3.org/2000/svg" xmlns:xlink="http://www.w3.org/1999/xlink" width="128" height="128" style=""><rect id="backgroundrect" width="100%" height="100%" x="0" y="0" fill="none" stroke="none"/>
  
<g class="currentLayer" style=""><title>Layer 1</title>
    <path d="M98.9185565149784,32.42144348502159 c-4.62,-8.6 -7.22,-13.43 -12.79,-20.46 C80.56855651497841,4.9314434850215925 73.98855651497841,-2.108556514978409 66.62855651497841,4.1814434850215925 c-3.72,3.17 -2.6,8.21 0.17,13.22 c-0.47000000000000025,-0.3100000000000003 0.43000000000000027,2.16 -0.010000000000000009,1.83 c-8.35,-6.37 -10.13,-5.67 -13.01,-3.39 c-6.84,5.41 4.96,16.47 8.81,22.4 c0.6600000000000008,1.02 3.07,1.97 3.64,2.91 c0.39000000000000035,0.6400000000000007 0.7600000000000007,1.26 1.11,1.86 c-0.43000000000000027,-0.13 -0.8700000000000006,-0.26 -1.32,-0.39000000000000035 c-4.04,-1.13 -13.32,-2.35 -17.54,-0.7600000000000007 C22.298556514978408,51.74144348502159 23.61855651497841,56.05144348502159 25.62855651497841,61.71144348502159 c2.01,5.66 9.35,9.84 21.35,2.38 c14.81,-6.12 27.11,2.08 27.11,10.6 c0,11.7 -3.83,18.31 -13.88,18.31 c-15.89,0 -16.74,-12.96 -25.23,-21.45 c-2.29,-2.29 -7.79,-2.96 -11.04,-0.6100000000000005 c-7.58,5.49 -2.68,16.88 -0.79,20.69 c3.96,7.97 8.84,19.53 21.69,29.95 c6.76,5.48 23.53,4.6400000000000015 33.23,2.66 c18.44,-3.7600000000000002 22.15,-16.01 28.07,-36.98 c2.23,-7.8900000000000015 2.5300000000000002,-14.24 2.5300000000000002,-23.05 C108.6685565149784,55.40144348502159 103.2185565149784,40.43144348502159 98.9185565149784,32.42144348502159 z" style="" id="svg_2" fill="#ffffff" fill-opacity="1" class=""/>
    <path d="M98.5585565149784,60.23144348502159 c-1.18,-5.04 -10.83,-12.92 -14.85,-15.52 c-0.41000000000000025,-2.2 -6.34,-15.14 -10.18,-20.25 c-2.13,-2.84 -6.07,-6.68 -7.46,-8.44 c0,0 0.3400000000000004,1.3900000000000001 -0.6500000000000007,2.19 c0.3800000000000003,0.46 6.15,7.73 8.55,13.13 s4.39,11.24 4.39,11.24 c-2.6100000000000003,-0.8700000000000006 -12.93,-4.33 -15.78,-4.34 c0,0 1,0.9 0.98,2.56 c-0.020000000000000018,1.55 -2.17,0.7300000000000005 -0.98,1.08 c7.62,2.21 18.26,4.85 24.82,11.13 c2.59,2.49 6.42,7.22 8.22,10.33 C96.9185565149784,65.56144348502158 98.87855651497841,61.60144348502159 98.5585565149784,60.23144348502159 z" style="" id="svg_3" fill="#dadada" fill-opacity="1" class=""/>
  </g></svg>