<svg xmlns="http://www.w3.org/2000/svg" viewBox="0 0 100 100"><defs><style>.cls-1{fill:#1d204b;}.cls-2{fill:#7487dd;}</style></defs><title>ок</title><g id="Слой_2" data-name="Слой 2"><g id="Слой_1-2" data-name="Слой 1"><circle class="cls-1" cx="50" cy="50" r="50"/><path class="cls-2" d="M70.26,26.35a5.15,5.15,0,0,0-8.58-2.44L60.49,19a5.65,5.65,0,1,0-11,2.69L52,31.7l-8.05-8.06a5.65,5.65,0,1,0-8.14,7.84l8.09,8.16-7.11,1.74a5.66,5.66,0,0,0-4.21,6.53,3.08,3.08,0,0,0-1.33,3.31l4.44,18.07A15.48,15.48,0,0,0,54.36,80.62l5-1.23a13.46,13.46,0,0,0,8-6,24.53,24.53,0,0,0,1.24-2.31,1,1,0,1,0-1.81-.85c-3.24,6.91-7.33,7.1-12.92,8.48a13.49,13.49,0,0,1-16.29-9.87L33.16,50.74a1.07,1.07,0,0,1,.78-1.29.9.9,0,0,0,.27-.1,6.52,6.52,0,0,1,6,2.22A7.41,7.41,0,0,1,41.72,55a14.44,14.44,0,0,0,7.37,9.35A5.25,5.25,0,0,0,56.75,60c0-1-.07-1.18-1.31-6.23a7.91,7.91,0,0,0-3.9-5.07c-1.44-.78-1.59-.94-2-.83l-8.11,2a8.23,8.23,0,0,0-6.91-2.49,3.64,3.64,0,0,1,2.75-4L46.79,41a11.29,11.29,0,0,1,8.62,1.32l9.64,5.84c1,1,.76.74,1,1.26a22.84,22.84,0,0,1,2.79,13,1,1,0,0,0,2,.17,24.88,24.88,0,0,0-1-9.43c.58-27.79.62-25.88.39-26.82ZM52.44,52c1,1.32,1.05,2.18,2.22,6.93A3.25,3.25,0,0,1,50,62.6a12.37,12.37,0,0,1-6.34-8.05,10.82,10.82,0,0,0-1-3l6.9-1.7A7.61,7.61,0,0,1,52.44,52Zm1.69-35.18a3.65,3.65,0,0,1,4.41,2.68L64.8,45l-3.24-3.38-6.87-7.16-3.24-13.2a3.66,3.66,0,0,1,2.68-4.42Zm-8,22.25-8.93-9a3.65,3.65,0,1,1,5.29-5c12.7,12.72,8.86,8.8,17.21,17.51l-3.25-2a13.35,13.35,0,0,0-10.32-1.51ZM68.41,27.65c-.5,23.35-.4,21.08-.56,20.78-.37-.67.32,1.91-5.53-21.91a3.14,3.14,0,0,1,6.09,1.13Z"/><path class="cls-2" d="M69.81,65.9a1,1,0,0,0-1.35.42l-.21.39a1,1,0,0,0,.87,1.49c.66,0,.88-.52,1.11-.94a1,1,0,0,0-.42-1.36Z"/></g></g></svg>