<svg width="14" height="12" viewBox="0 0 14 12" fill="none" xmlns="http://www.w3.org/2000/svg">
<path d="M13.9966 0.345352L12.3223 11.4386C12.3154 11.4841 12.2981 11.5274 12.2718 11.5652C12.2455 11.603 12.2108 11.6343 12.1704 11.6567C12.13 11.679 12.0849 11.6919 12.0387 11.6943C11.9925 11.6967 11.9464 11.6885 11.9039 11.6704L7.18093 9.65882L4.91379 11.9119C4.87147 11.954 4.81756 11.9826 4.75887 11.9942C4.70018 12.0058 4.63934 11.9999 4.58406 11.9771C4.52877 11.9544 4.48152 11.9158 4.44827 11.8664C4.41502 11.8169 4.39728 11.7588 4.39728 11.6993V8.71923L9.62135 4.47141C9.68297 4.42145 9.73407 4.35992 9.77175 4.29033C9.80942 4.22074 9.83293 4.14445 9.84092 4.06583C9.84891 3.9872 9.84124 3.90778 9.81833 3.83211C9.79542 3.75644 9.75774 3.68599 9.70742 3.6248C9.65711 3.5636 9.59515 3.51287 9.5251 3.47548C9.45504 3.4381 9.37826 3.4148 9.29914 3.40692C9.22002 3.39904 9.14011 3.40673 9.06399 3.42956C8.98786 3.45238 8.917 3.4899 8.85547 3.53995L3.34145 8.02349L0.183406 6.67842C0.129564 6.65549 0.0835761 6.61753 0.0510238 6.56913C0.0184715 6.52073 0.000754664 6.46398 2.35761e-05 6.40578C-0.000707512 6.34757 0.0155787 6.2904 0.0469053 6.24121C0.0782319 6.19202 0.123252 6.15292 0.176501 6.12867L13.5713 0.0273626C13.6209 0.00477458 13.6757 -0.00407953 13.7299 0.00173689C13.7841 0.00755332 13.8357 0.0278241 13.8793 0.060405C13.9229 0.0929858 13.9568 0.136666 13.9775 0.186825C13.9981 0.236984 14.0047 0.291757 13.9966 0.345352Z" fill="white"/>
</svg>
