<svg xmlns="http://www.w3.org/2000/svg" viewBox="0 0 100 100"><defs><style>.cls-1{fill:#1d204b;}.cls-2{fill:#7487dd;}</style></defs><title>отправить</title><g id="Слой_2" data-name="Слой 2"><g id="Слой_1-2" data-name="Слой 1"><circle class="cls-1" cx="50" cy="50" r="50"/><path class="cls-2" d="M79.44,26.43H27.1A4.56,4.56,0,0,0,22.54,31v9.72H15.4a1,1,0,1,0,0,2H27.64a1,1,0,1,0,0-2H24.58V31a2.44,2.44,0,0,1,.17-.9l19.8,19.8-19.8,19.8a2.44,2.44,0,0,1-.17-.9V62.13a1,1,0,0,0-2,0v6.66a4.56,4.56,0,0,0,4.56,4.55H79.44A4.56,4.56,0,0,0,84,68.79V31A4.56,4.56,0,0,0,79.44,26.43ZM62,49.89l19.8-19.8A2.44,2.44,0,0,1,82,31v37.8a2.44,2.44,0,0,1-.17.9ZM79.44,28.47a2.72,2.72,0,0,1,.91.17L57.6,51.39a6.13,6.13,0,0,1-8.66,0L26.19,28.64a2.72,2.72,0,0,1,.91-.17ZM27.1,71.3a2.49,2.49,0,0,1-.91-.17L46,51.33l1.5,1.51a8.18,8.18,0,0,0,11.54,0l1.51-1.51,19.8,19.8a2.48,2.48,0,0,1-.9.17Z"/><path class="cls-2" d="M23.56,44.79a1,1,0,0,0-1,1v3.06H15.4a1,1,0,0,0,0,2H31.72a1,1,0,0,0,0-2H24.58V45.81A1,1,0,0,0,23.56,44.79Z"/><path class="cls-2" d="M27.64,59.07a1,1,0,1,0,0-2H24.58V54a1,1,0,0,0-2,0V57H15.4a1,1,0,1,0,0,2Z"/></g></g></svg>