<svg xmlns="http://www.w3.org/2000/svg" viewBox="0 0 100 100"><defs><style>.cls-1{fill:#2059ed;}.cls-2{fill:#fff;}</style></defs><title>загрузить 1</title><g id="Слой_2" data-name="Слой 2"><g id="Слой_1-2" data-name="Слой 1"><circle class="cls-1" cx="50" cy="50" r="50"/><path class="cls-2" d="M33.78,59.74h8.31a1.66,1.66,0,0,0,0-3.32H33.78a1.66,1.66,0,0,1-1.66-1.66V33.15a1.66,1.66,0,0,1,1.66-1.66H67a1.67,1.67,0,0,1,1.67,1.66V54.76A1.67,1.67,0,0,1,67,56.42h-8.3a1.66,1.66,0,1,0,0,3.32H67a5,5,0,0,0,5-5V33.15a5,5,0,0,0-5-5H33.78a5,5,0,0,0-5,5V54.76A5,5,0,0,0,33.78,59.74Z"/><path class="cls-2" d="M41,51a1.67,1.67,0,0,0,2.31,0l5.48-5.48V73a1.66,1.66,0,0,0,3.32,0V45.47L57.53,51a1.66,1.66,0,0,0,2.35-2.35l-8.31-8.31a1.66,1.66,0,0,0-2.35,0h0L40.91,48.6A1.66,1.66,0,0,0,41,51Z"/></g></g></svg>